<mxfile host="app.diagrams.net" agent="Mozilla/5.0 (Windows NT 10.0; Win64; x64) AppleWebKit/537.36 (KHTML, like Gecko) Chrome/130.0.0.0 Safari/537.36" version="24.7.17">
  <diagram name="Halaman-1" id="RPx_XiocIJFIrItxDi30">
    <mxGraphModel dx="2889" dy="1476" grid="0" gridSize="10" guides="1" tooltips="1" connect="1" arrows="1" fold="1" page="0" pageScale="1" pageWidth="850" pageHeight="1100" math="0" shadow="0">
      <root>
        <mxCell id="0" />
        <mxCell id="1" parent="0" />
        <mxCell id="XJ94cGiHVxSxagJHm8F0-3" value="" style="edgeStyle=none;curved=1;rounded=0;orthogonalLoop=1;jettySize=auto;html=1;fontSize=12;startSize=8;endSize=8;" edge="1" parent="1" source="XJ94cGiHVxSxagJHm8F0-1" target="XJ94cGiHVxSxagJHm8F0-2">
          <mxGeometry relative="1" as="geometry" />
        </mxCell>
        <mxCell id="XJ94cGiHVxSxagJHm8F0-1" value="Start" style="ellipse;whiteSpace=wrap;html=1;" vertex="1" parent="1">
          <mxGeometry x="108" y="-138" width="84" height="56" as="geometry" />
        </mxCell>
        <mxCell id="XJ94cGiHVxSxagJHm8F0-5" value="" style="edgeStyle=none;curved=1;rounded=0;orthogonalLoop=1;jettySize=auto;html=1;fontSize=12;startSize=8;endSize=8;" edge="1" parent="1" source="XJ94cGiHVxSxagJHm8F0-2" target="XJ94cGiHVxSxagJHm8F0-4">
          <mxGeometry relative="1" as="geometry" />
        </mxCell>
        <mxCell id="XJ94cGiHVxSxagJHm8F0-2" value="i = 0&lt;div&gt;n = 10&lt;/div&gt;" style="whiteSpace=wrap;html=1;" vertex="1" parent="1">
          <mxGeometry x="90" y="-27" width="120" height="60" as="geometry" />
        </mxCell>
        <mxCell id="XJ94cGiHVxSxagJHm8F0-7" value="" style="edgeStyle=none;curved=1;rounded=0;orthogonalLoop=1;jettySize=auto;html=1;fontSize=12;startSize=8;endSize=8;" edge="1" parent="1" source="XJ94cGiHVxSxagJHm8F0-4" target="XJ94cGiHVxSxagJHm8F0-6">
          <mxGeometry relative="1" as="geometry" />
        </mxCell>
        <mxCell id="XJ94cGiHVxSxagJHm8F0-47" value="" style="edgeStyle=none;curved=1;rounded=0;orthogonalLoop=1;jettySize=auto;html=1;fontSize=12;startSize=8;endSize=8;" edge="1" parent="1" source="XJ94cGiHVxSxagJHm8F0-4">
          <mxGeometry relative="1" as="geometry">
            <mxPoint x="-46" y="144" as="targetPoint" />
          </mxGeometry>
        </mxCell>
        <mxCell id="XJ94cGiHVxSxagJHm8F0-4" value="i &amp;lt; n&amp;nbsp;" style="rhombus;whiteSpace=wrap;html=1;" vertex="1" parent="1">
          <mxGeometry x="110" y="104" width="80" height="80" as="geometry" />
        </mxCell>
        <mxCell id="XJ94cGiHVxSxagJHm8F0-9" value="" style="edgeStyle=none;curved=1;rounded=0;orthogonalLoop=1;jettySize=auto;html=1;fontSize=12;startSize=8;endSize=8;" edge="1" parent="1" source="XJ94cGiHVxSxagJHm8F0-6" target="XJ94cGiHVxSxagJHm8F0-8">
          <mxGeometry relative="1" as="geometry" />
        </mxCell>
        <mxCell id="XJ94cGiHVxSxagJHm8F0-6" value="j = 0" style="whiteSpace=wrap;html=1;" vertex="1" parent="1">
          <mxGeometry x="88" y="239" width="120" height="60" as="geometry" />
        </mxCell>
        <mxCell id="XJ94cGiHVxSxagJHm8F0-11" value="" style="edgeStyle=none;curved=1;rounded=0;orthogonalLoop=1;jettySize=auto;html=1;fontSize=12;startSize=8;endSize=8;" edge="1" parent="1" source="XJ94cGiHVxSxagJHm8F0-8" target="XJ94cGiHVxSxagJHm8F0-10">
          <mxGeometry relative="1" as="geometry" />
        </mxCell>
        <mxCell id="XJ94cGiHVxSxagJHm8F0-8" value="j &amp;lt; n&amp;nbsp;" style="rhombus;whiteSpace=wrap;html=1;" vertex="1" parent="1">
          <mxGeometry x="110" y="374" width="80" height="80" as="geometry" />
        </mxCell>
        <mxCell id="XJ94cGiHVxSxagJHm8F0-10" value="&lt;span style=&quot;color: rgba(0, 0, 0, 0); font-family: monospace; font-size: 0px; text-align: start; text-wrap-mode: nowrap;&quot;&gt;%3CmxGraphModel%3E%3Croot%3E%3CmxCell%20id%3D%220%22%2F%3E%3CmxCell%20id%3D%221%22%20parent%3D%220%22%2F%3E%3CmxCell%20id%3D%222%22%20value%3D%22%22%20style%3D%22endArrow%3Dnone%3Bhtml%3D1%3Brounded%3D0%3BfontSize%3D12%3BstartSize%3D8%3BendSize%3D8%3Bcurved%3D1%3BentryX%3D0%3BentryY%3D0.5%3BentryDx%3D0%3BentryDy%3D0%3B%22%20edge%3D%221%22%20parent%3D%221%22%3E%3CmxGeometry%20width%3D%2250%22%20height%3D%2250%22%20relative%3D%221%22%20as%3D%22geometry%22%3E%3CmxPoint%20x%3D%2223%22%20y%3D%22394%22%20as%3D%22sourcePoint%22%2F%3E%3CmxPoint%20x%3D%22108%22%20y%3D%22394%22%20as%3D%22targetPoint%22%2F%3E%3C%2FmxGeometry%3E%3C%2FmxCell%3E%3C%2Froot%3E%3C%2FmxGraphModel%3E&lt;/span&gt;*&lt;span style=&quot;color: rgba(0, 0, 0, 0); font-family: monospace; font-size: 0px; text-align: start; text-wrap-mode: nowrap;&quot;&gt;%3CmxGraphModel%3E%3Croot%3E%3CmxCell%20id%3D%220%22%2F%3E%3CmxCell%20id%3D%221%22%20parent%3D%220%22%2F%3E%3CmxCell%20id%3D%222%22%20value%3D%22%22%20style%3D%22endArrow%3Dnone%3Bhtml%3D1%3Brounded%3D0%3BfontSize%3D12%3BstartSize%3D8%3BendSize%3D8%3Bcurved%3D1%3BentryX%3D0%3BentryY%3D0.5%3BentryDx%3D0%3BentryDy%3D0%3B%22%20edge%3D%221%22%20parent%3D%221%22%3E%3CmxGeometry%20width%3D%2250%22%20height%3D%2250%22%20relative%3D%221%22%20as%3D%22geometry%22%3E%3CmxPoint%20x%3D%2223%22%20y%3D%22394%22%20as%3D%22sourcePoint%22%2F%3E%3CmxPoint%20x%3D%22108%22%20y%3D%22394%22%20as%3D%22targetPoint%22%2F%3E%3C%2FmxGeometry%3E%3C%2FmxCell%3E%3C%2Froot%3E%3C%2FmxGraphModel%3E&lt;/span&gt;" style="whiteSpace=wrap;html=1;" vertex="1" parent="1">
          <mxGeometry x="122.5" y="510" width="51" height="32" as="geometry" />
        </mxCell>
        <mxCell id="XJ94cGiHVxSxagJHm8F0-15" style="edgeStyle=none;curved=1;rounded=0;orthogonalLoop=1;jettySize=auto;html=1;exitX=0;exitY=0.5;exitDx=0;exitDy=0;fontSize=12;startSize=8;endSize=8;" edge="1" parent="1">
          <mxGeometry relative="1" as="geometry">
            <mxPoint x="119.5" y="527.9999999999998" as="sourcePoint" />
            <mxPoint x="119.5" y="527.9999999999998" as="targetPoint" />
          </mxGeometry>
        </mxCell>
        <mxCell id="XJ94cGiHVxSxagJHm8F0-29" value="" style="endArrow=none;html=1;rounded=0;fontSize=12;startSize=8;endSize=8;curved=1;entryX=0;entryY=0.5;entryDx=0;entryDy=0;" edge="1" parent="1" target="XJ94cGiHVxSxagJHm8F0-8">
          <mxGeometry width="50" height="50" relative="1" as="geometry">
            <mxPoint x="25" y="414" as="sourcePoint" />
            <mxPoint x="212" y="426" as="targetPoint" />
          </mxGeometry>
        </mxCell>
        <mxCell id="XJ94cGiHVxSxagJHm8F0-30" value="" style="endArrow=none;html=1;rounded=0;fontSize=12;startSize=8;endSize=8;curved=1;" edge="1" parent="1">
          <mxGeometry width="50" height="50" relative="1" as="geometry">
            <mxPoint x="23" y="409" as="sourcePoint" />
            <mxPoint x="23" y="601" as="targetPoint" />
          </mxGeometry>
        </mxCell>
        <mxCell id="XJ94cGiHVxSxagJHm8F0-31" value="" style="endArrow=none;html=1;rounded=0;fontSize=12;startSize=8;endSize=8;curved=1;entryX=0;entryY=0.5;entryDx=0;entryDy=0;" edge="1" parent="1">
          <mxGeometry width="50" height="50" relative="1" as="geometry">
            <mxPoint x="23" y="596" as="sourcePoint" />
            <mxPoint x="121.25000000000023" y="593.4999999999998" as="targetPoint" />
          </mxGeometry>
        </mxCell>
        <mxCell id="XJ94cGiHVxSxagJHm8F0-32" value="&lt;span style=&quot;color: rgba(0, 0, 0, 0); font-family: monospace; font-size: 0px; text-align: start; text-wrap-mode: nowrap;&quot;&gt;%3CmxGraphModel%3E%3Croot%3E%3CmxCell%20id%3D%220%22%2F%3E%3CmxCell%20id%3D%221%22%20parent%3D%220%22%2F%3E%3CmxCell%20id%3D%222%22%20value%3D%22%22%20style%3D%22endArrow%3Dnone%3Bhtml%3D1%3Brounded%3D0%3BfontSize%3D12%3BstartSize%3D8%3BendSize%3D8%3Bcurved%3D1%3BentryX%3D0%3BentryY%3D0.5%3BentryDx%3D0%3BentryDy%3D0%3B%22%20edge%3D%221%22%20parent%3D%221%22%3E%3CmxGeometry%20width%3D%2250%22%20height%3D%2250%22%20relative%3D%221%22%20as%3D%22geometry%22%3E%3CmxPoint%20x%3D%2223%22%20y%3D%22394%22%20as%3D%22sourcePoint%22%2F%3E%3CmxPoint%20x%3D%22108%22%20y%3D%22394%22%20as%3D%22targetPoint%22%2F%3E%3C%2FmxGeometry%3E%3C%2FmxCell%3E%3C%2Froot%3E%3C%2FmxGraphModel%3E&lt;/span&gt;*&lt;span style=&quot;color: rgba(0, 0, 0, 0); font-family: monospace; font-size: 0px; text-align: start; text-wrap-mode: nowrap;&quot;&gt;%3CmxGraphModel%3E%3Croot%3E%3CmxCell%20id%3D%220%22%2F%3E%3CmxCell%20id%3D%221%22%20parent%3D%220%22%2F%3E%3CmxCell%20id%3D%222%22%20value%3D%22%22%20style%3D%22endArrow%3Dnone%3Bhtml%3D1%3Brounded%3D0%3BfontSize%3D12%3BstartSize%3D8%3BendSize%3D8%3Bcurved%3D1%3BentryX%3D0%3BentryY%3D0.5%3BentryDx%3D0%3BentryDy%3D0%3B%22%20edge%3D%221%22%20parent%3D%221%22%3E%3CmxGeometry%20width%3D%2250%22%20height%3D%2250%22%20relative%3D%221%22%20as%3D%22geometry%22%3E%3CmxPoint%20x%3D%2223%22%20y%3D%22394%22%20as%3D%22sourcePoint%22%2F%3E%3CmxPoint%20x%3D%22108%22%20y%3D%22394%22%20as%3D%22targetPoint%22%2F%3E%3C%2FmxGeometry%3E%3C%2FmxCell%3E%3C%2Froot%3E%3C%2FmxGraphModel%3E&lt;/span&gt;" style="whiteSpace=wrap;html=1;" vertex="1" parent="1">
          <mxGeometry x="121.25" y="577" width="53.5" height="33" as="geometry" />
        </mxCell>
        <mxCell id="XJ94cGiHVxSxagJHm8F0-38" value="" style="edgeStyle=none;curved=1;rounded=0;orthogonalLoop=1;jettySize=auto;html=1;fontSize=12;startSize=8;endSize=8;" edge="1" parent="1" source="XJ94cGiHVxSxagJHm8F0-37">
          <mxGeometry relative="1" as="geometry">
            <mxPoint x="146" y="65" as="targetPoint" />
          </mxGeometry>
        </mxCell>
        <mxCell id="XJ94cGiHVxSxagJHm8F0-37" value="i++" style="whiteSpace=wrap;html=1;" vertex="1" parent="1">
          <mxGeometry x="307" y="53" width="63" height="28" as="geometry" />
        </mxCell>
        <mxCell id="XJ94cGiHVxSxagJHm8F0-44" value="j++" style="whiteSpace=wrap;html=1;" vertex="1" parent="1">
          <mxGeometry x="244" y="196" width="63" height="28" as="geometry" />
        </mxCell>
        <mxCell id="XJ94cGiHVxSxagJHm8F0-45" value="" style="edgeStyle=none;curved=1;rounded=0;orthogonalLoop=1;jettySize=auto;html=1;fontSize=12;startSize=8;endSize=8;" edge="1" parent="1">
          <mxGeometry relative="1" as="geometry">
            <mxPoint x="242" y="211" as="sourcePoint" />
            <mxPoint x="146" y="210.5" as="targetPoint" />
          </mxGeometry>
        </mxCell>
        <mxCell id="XJ94cGiHVxSxagJHm8F0-48" value="" style="endArrow=none;html=1;rounded=0;fontSize=12;startSize=8;endSize=8;curved=1;" edge="1" parent="1">
          <mxGeometry width="50" height="50" relative="1" as="geometry">
            <mxPoint x="-46" y="644" as="sourcePoint" />
            <mxPoint x="-46" y="140" as="targetPoint" />
          </mxGeometry>
        </mxCell>
        <mxCell id="XJ94cGiHVxSxagJHm8F0-50" value="End" style="ellipse;whiteSpace=wrap;html=1;" vertex="1" parent="1">
          <mxGeometry x="-111" y="638" width="120" height="80" as="geometry" />
        </mxCell>
        <mxCell id="XJ94cGiHVxSxagJHm8F0-51" value="" style="endArrow=none;html=1;rounded=0;fontSize=12;startSize=8;endSize=8;curved=1;" edge="1" parent="1">
          <mxGeometry width="50" height="50" relative="1" as="geometry">
            <mxPoint x="188" y="413" as="sourcePoint" />
            <mxPoint x="277" y="413" as="targetPoint" />
          </mxGeometry>
        </mxCell>
        <mxCell id="XJ94cGiHVxSxagJHm8F0-52" value="" style="endArrow=none;html=1;rounded=0;fontSize=12;startSize=8;endSize=8;curved=1;" edge="1" parent="1">
          <mxGeometry width="50" height="50" relative="1" as="geometry">
            <mxPoint x="278" y="415" as="sourcePoint" />
            <mxPoint x="278" y="226" as="targetPoint" />
          </mxGeometry>
        </mxCell>
        <mxCell id="XJ94cGiHVxSxagJHm8F0-53" value="" style="endArrow=none;html=1;rounded=0;fontSize=12;startSize=8;endSize=8;curved=1;" edge="1" parent="1">
          <mxGeometry width="50" height="50" relative="1" as="geometry">
            <mxPoint x="174.75" y="592" as="sourcePoint" />
            <mxPoint x="337" y="590" as="targetPoint" />
          </mxGeometry>
        </mxCell>
        <mxCell id="XJ94cGiHVxSxagJHm8F0-54" value="" style="endArrow=none;html=1;rounded=0;fontSize=12;startSize=8;endSize=8;curved=1;" edge="1" parent="1">
          <mxGeometry width="50" height="50" relative="1" as="geometry">
            <mxPoint x="336" y="586" as="sourcePoint" />
            <mxPoint x="339" y="81" as="targetPoint" />
          </mxGeometry>
        </mxCell>
      </root>
    </mxGraphModel>
  </diagram>
</mxfile>
